<svg width="13" height="8" viewBox="0 0 13 8" fill="none" xmlns="http://www.w3.org/2000/svg">
<path d="M12.8268 1.06754L6.91805 7.31754C6.86317 7.37565 6.798 7.42175 6.72627 7.4532C6.65454 7.48465 6.57765 7.50084 6.5 7.50084C6.42235 7.50084 6.34546 7.48465 6.27373 7.4532C6.202 7.42175 6.13683 7.37565 6.08195 7.31754L0.173161 1.06754C0.0622877 0.95026 0 0.7912 0 0.625347C0 0.459495 0.0622877 0.300435 0.173161 0.18316C0.284034 0.0658843 0.43441 0 0.591208 0C0.748006 0 0.898382 0.0658843 1.00925 0.18316L6.5 5.99175L11.9907 0.18316C12.0456 0.125091 12.1108 0.0790281 12.1825 0.0476015C12.2543 0.0161748 12.3312 0 12.4088 0C12.4864 0 12.5633 0.0161748 12.635 0.0476015C12.7068 0.0790281 12.7719 0.125091 12.8268 0.18316C12.8817 0.241229 12.9253 0.310167 12.955 0.386037C12.9847 0.461908 13 0.543226 13 0.625347C13 0.707469 12.9847 0.788787 12.955 0.864658C12.9253 0.940528 12.8817 1.00947 12.8268 1.06754Z" fill="#112211"/>
</svg>
