<svg width="51" height="51" viewBox="0 0 51 51" fill="none" xmlns="http://www.w3.org/2000/svg">
<path d="M43.3535 11.604V11.104H42.8535H8.47852H7.97852V11.604V29.8403V31.0474L8.83207 30.1939L16.7773 22.2487C16.7773 22.2487 16.7773 22.2486 16.7774 22.2486C17.2696 21.7567 17.937 21.4805 18.6328 21.4805C19.3287 21.4805 19.996 21.7567 20.4882 22.2486C20.4883 22.2486 20.4883 22.2487 20.4884 22.2487L29.082 30.8423L29.4355 31.1959L29.7891 30.8423L33.6954 26.9361L33.6954 26.936C33.9392 26.6922 34.2286 26.4988 34.5471 26.3668C34.8656 26.2349 35.207 26.167 35.5518 26.167C35.8965 26.167 36.2379 26.2349 36.5564 26.3668C36.875 26.4988 37.1644 26.6922 37.4081 26.936L37.4082 26.9361L42.5 32.026L43.3535 32.8791V31.6724V11.604ZM8.12496 33.9067L7.97852 34.0531V34.2603V39.729V40.229H8.47852H34.2598H35.4669L34.6133 39.3755L18.9883 23.7505L18.6348 23.3969L18.2812 23.7505L8.12496 33.9067ZM42.8535 40.229H43.3535V39.729V36.0923V35.8852L43.2071 35.7388L35.9083 28.438L35.5547 28.0844L35.2011 28.438L31.2949 32.3442L30.9413 32.6978L31.2949 33.0513L38.3261 40.0826L38.4726 40.229H38.6797H42.8535ZM8.47852 8.979H42.8535C43.5497 8.979 44.2174 9.25557 44.7097 9.74785C45.202 10.2401 45.4785 10.9078 45.4785 11.604V39.729C45.4785 40.4252 45.202 41.0929 44.7097 41.5852C44.2174 42.0774 43.5497 42.354 42.8535 42.354H8.47852C7.78232 42.354 7.11464 42.0774 6.62236 41.5852C6.13008 41.0929 5.85352 40.4252 5.85352 39.729V11.604C5.85352 10.9078 6.13008 10.2401 6.62236 9.74785C7.11464 9.25557 7.78232 8.979 8.47852 8.979ZM29.291 20.1978C29.291 19.8331 29.3991 19.4766 29.6017 19.1734C29.8043 18.8702 30.0923 18.6339 30.4292 18.4944C30.7661 18.3548 31.1368 18.3183 31.4945 18.3894C31.8521 18.4606 32.1806 18.6362 32.4385 18.894C32.6963 19.1519 32.8719 19.4804 32.9431 19.8381C33.0142 20.1957 32.9777 20.5664 32.8382 20.9033C32.6986 21.2402 32.4623 21.5282 32.1591 21.7308C31.8559 21.9334 31.4994 22.0415 31.1348 22.0415C30.6458 22.0415 30.1768 21.8473 29.831 21.5015C29.4853 21.1557 29.291 20.6867 29.291 20.1978Z" fill="#9F9A9A" stroke="white"/>
</svg>
