<svg width="26" height="19" viewBox="0 0 26 19" fill="none" xmlns="http://www.w3.org/2000/svg">
<path d="M16.375 6.2501C16.8942 6.2501 17.4017 6.09614 17.8334 5.8077C18.2651 5.51925 18.6015 5.10928 18.8002 4.62961C18.9989 4.14995 19.0509 3.62214 18.9496 3.11293C18.8483 2.60372 18.5983 2.13598 18.2312 1.76886C17.864 1.40174 17.3963 1.15173 16.8871 1.05044C16.3779 0.949153 15.8501 1.00114 15.3704 1.19982C14.8907 1.3985 14.4808 1.73496 14.1923 2.16665C13.9039 2.59834 13.7499 3.10586 13.7499 3.62505C13.7499 4.32125 14.0265 4.98895 14.5188 5.48124C15.0111 5.97353 15.6788 6.2501 16.375 6.2501ZM16.375 2.50003C16.5975 2.50003 16.815 2.56601 17 2.68963C17.185 2.81325 17.3292 2.98895 17.4144 3.19452C17.4995 3.40009 17.5218 3.6263 17.4784 3.84453C17.435 4.06276 17.3278 4.26322 17.1705 4.42056C17.0131 4.57789 16.8127 4.68504 16.5945 4.72845C16.3762 4.77186 16.15 4.74958 15.9444 4.66443C15.7389 4.57928 15.5632 4.43508 15.4396 4.25008C15.3159 4.06507 15.25 3.84756 15.25 3.62505C15.25 3.32667 15.3685 3.04052 15.5795 2.82954C15.7904 2.61856 16.0766 2.50003 16.375 2.50003ZM24.8951 17.1178L19.78 8.48514C19.6481 8.26025 19.4594 8.07398 19.2329 7.94498C19.0063 7.81598 18.7498 7.74879 18.4891 7.75012C18.2285 7.74876 17.9721 7.81596 17.7457 7.94497C17.5193 8.07398 17.3307 8.26026 17.1991 8.48514L14.7465 12.6252L10.5427 5.49071C10.4102 5.26557 10.2213 5.07893 9.9945 4.94926C9.76775 4.81959 9.51106 4.75137 9.24985 4.75137C8.98863 4.75137 8.73195 4.81959 8.50519 4.94926C8.27844 5.07893 8.08948 5.26557 7.95701 5.49071L1.10376 17.1197C1.03668 17.2336 1.00089 17.3632 1.00002 17.4953C0.999142 17.6275 1.03322 17.7576 1.09879 17.8724C1.16436 17.9871 1.25909 18.0825 1.3734 18.1489C1.48771 18.2153 1.61753 18.2503 1.74971 18.2503H24.2501C24.3825 18.2503 24.5125 18.2152 24.627 18.1487C24.7414 18.0822 24.8362 17.9865 24.9017 17.8715C24.9672 17.7564 25.0011 17.6261 25 17.4937C24.9988 17.3614 24.9626 17.2317 24.8951 17.1178ZM9.24985 6.2501L11.4596 10.0002H7.04012L9.24985 6.2501ZM3.06224 16.7503L6.15604 11.5002H12.3437L14.1006 14.4815L15.4375 16.7503H3.06224ZM17.1784 16.7503L15.6165 14.099L18.4891 9.25015L22.9376 16.7503H17.1784Z" fill="#112211" stroke="black" stroke-width="0.4"/>
</svg>
