<svg width="20" height="20" viewBox="0 0 20 20" fill="none" xmlns="http://www.w3.org/2000/svg">
<path d="M18.9773 5.5452L14.7876 1.35645C14.6483 1.21713 14.4829 1.10661 14.3009 1.03121C14.1189 0.955802 13.9238 0.916992 13.7268 0.916992C13.5298 0.916992 13.3347 0.955802 13.1527 1.03121C12.9707 1.10661 12.8053 1.21713 12.666 1.35645L1.10571 12.9168C0.965816 13.0555 0.854905 13.2208 0.779422 13.4028C0.70394 13.5848 0.665394 13.78 0.666023 13.9771V18.1668C0.666023 18.5646 0.824058 18.9461 1.10536 19.2274C1.38667 19.5087 1.7682 19.6668 2.16602 19.6668H17.916C18.1149 19.6668 18.3057 19.5877 18.4464 19.4471C18.587 19.3064 18.666 19.1157 18.666 18.9168C18.666 18.7179 18.587 18.5271 18.4464 18.3864C18.3057 18.2458 18.1149 18.1668 17.916 18.1668H8.47727L18.9773 7.66676C19.1166 7.52747 19.2271 7.3621 19.3025 7.18009C19.3779 6.99808 19.4167 6.803 19.4167 6.60598C19.4167 6.40897 19.3779 6.21389 19.3025 6.03188C19.2271 5.84987 19.1166 5.68449 18.9773 5.5452ZM6.35571 18.1668H2.16602V13.9771L10.416 5.72708L14.6057 9.91677L6.35571 18.1668ZM15.666 8.85645L11.4773 4.66677L13.7273 2.41677L17.916 6.60645L15.666 8.85645Z" fill="#1C1C1C"/>
</svg>
