<svg width="17" height="10" viewBox="0 0 17 10" fill="none" xmlns="http://www.w3.org/2000/svg">
<path d="M7.79019 6.93977C8.43838 6.50825 8.93049 5.87958 9.19375 5.14674C9.45701 4.4139 9.47745 3.6158 9.25203 2.87044C9.02662 2.12509 8.56732 1.47207 7.94207 1.00794C7.31681 0.543806 6.55879 0.293213 5.7801 0.293213C5.00141 0.293213 4.24339 0.543806 3.61813 1.00794C2.99288 1.47207 2.53358 2.12509 2.30817 2.87044C2.08276 3.6158 2.10319 4.4139 2.36645 5.14674C2.62971 5.87958 3.12182 6.50825 3.77001 6.93977C2.5975 7.37192 1.59615 8.1716 0.915378 9.21949C0.879599 9.27267 0.854746 9.33243 0.842266 9.39529C0.829785 9.45816 0.829925 9.52288 0.842677 9.58569C0.855429 9.6485 0.880539 9.70815 0.916547 9.76118C0.952556 9.8142 0.998744 9.85954 1.05243 9.89455C1.10611 9.92957 1.16622 9.95356 1.22926 9.96514C1.2923 9.97672 1.35701 9.97566 1.41963 9.96201C1.48226 9.94836 1.54154 9.9224 1.59404 9.88563C1.64655 9.84887 1.69122 9.80204 1.72546 9.74786C2.16459 9.07246 2.76548 8.51745 3.47357 8.13324C4.18165 7.74903 4.97449 7.54779 5.7801 7.54779C6.58571 7.54779 7.37855 7.74903 8.08664 8.13324C8.79472 8.51745 9.39561 9.07246 9.83474 9.74786C9.90568 9.85328 10.0153 9.92656 10.1398 9.95184C10.2643 9.97712 10.3938 9.95238 10.5002 9.88296C10.6066 9.81354 10.6815 9.70503 10.7085 9.58087C10.7356 9.45672 10.7127 9.3269 10.6448 9.21949C9.96405 8.1716 8.9627 7.37192 7.79019 6.93977ZM3.12013 3.92192C3.12013 3.39582 3.27613 2.88155 3.56842 2.44412C3.8607 2.00669 4.27613 1.66575 4.76217 1.46443C5.24822 1.2631 5.78305 1.21042 6.29904 1.31306C6.81502 1.41569 7.28898 1.66903 7.66098 2.04103C8.03299 2.41304 8.28632 2.887 8.38896 3.40298C8.4916 3.91897 8.43892 4.4538 8.23759 4.93984C8.03627 5.42589 7.69533 5.84132 7.2579 6.1336C6.82047 6.42588 6.30619 6.58189 5.7801 6.58189C5.07488 6.58109 4.39877 6.30058 3.9001 5.80192C3.40143 5.30325 3.12093 4.62714 3.12013 3.92192ZM15.8239 9.88871C15.7165 9.95877 15.5856 9.98328 15.4601 9.95687C15.3346 9.93045 15.2248 9.85527 15.1547 9.74786C14.7161 9.07205 14.1153 8.51681 13.407 8.13276C12.6988 7.74871 11.9057 7.54807 11.1 7.54915C10.9718 7.54915 10.8488 7.4982 10.7581 7.4075C10.6674 7.3168 10.6164 7.19379 10.6164 7.06552C10.6164 6.93725 10.6674 6.81424 10.7581 6.72354C10.8488 6.63284 10.9718 6.58189 11.1 6.58189C11.4918 6.58152 11.8786 6.49463 12.2328 6.32745C12.5871 6.16026 12.9 5.91689 13.1493 5.61473C13.3986 5.31257 13.5781 4.95908 13.6749 4.57952C13.7718 4.19996 13.7836 3.80369 13.7095 3.41903C13.6355 3.03437 13.4774 2.67082 13.2465 2.35435C13.0157 2.03787 12.7178 1.77629 12.3741 1.5883C12.0304 1.4003 11.6495 1.29053 11.2585 1.26682C10.8675 1.24312 10.4761 1.30606 10.1122 1.45117C10.0529 1.47681 9.98904 1.49031 9.92441 1.49085C9.85978 1.4914 9.79569 1.47899 9.73594 1.45435C9.67619 1.42971 9.62199 1.39334 9.57653 1.3474C9.53107 1.30145 9.49528 1.24687 9.47128 1.18686C9.44728 1.12685 9.43554 1.06264 9.43678 0.998016C9.43801 0.933396 9.45218 0.869679 9.47846 0.810629C9.50473 0.75158 9.54257 0.698395 9.58975 0.654219C9.63693 0.610042 9.69248 0.57577 9.75313 0.553427C10.5859 0.221324 11.5121 0.209373 12.3531 0.519879C13.1941 0.830385 13.8903 1.44135 14.3075 2.2349C14.7246 3.02846 14.8331 3.94837 14.612 4.81719C14.3909 5.686 13.8559 6.44216 13.1101 6.93977C14.2826 7.37192 15.284 8.1716 15.9648 9.21949C16.0348 9.32692 16.0593 9.45777 16.0329 9.58327C16.0065 9.70877 15.9313 9.81864 15.8239 9.88871Z" fill="#112211"/>
</svg>
