<svg width="20" height="20" viewBox="0 0 20 20" fill="none" xmlns="http://www.w3.org/2000/svg">
<path d="M9.55113 0.923828C9.86679 0.923828 10.1695 1.04923 10.3927 1.27244C10.616 1.49565 10.7414 1.79839 10.7414 2.11406V9.25543H17.8827C18.1984 9.25543 18.5011 9.38083 18.7243 9.60404C18.9476 9.82725 19.073 10.13 19.073 10.4457C19.073 10.7613 18.9476 11.0641 18.7243 11.2873C18.5011 11.5105 18.1984 11.6359 17.8827 11.6359H10.7414V18.7773C10.7414 19.0929 10.616 19.3957 10.3927 19.6189C10.1695 19.8421 9.86679 19.9675 9.55113 19.9675C9.23546 19.9675 8.93272 19.8421 8.70951 19.6189C8.4863 19.3957 8.3609 19.0929 8.3609 18.7773V11.6359H1.21953C0.903857 11.6359 0.601118 11.5105 0.377907 11.2873C0.154696 11.0641 0.0292969 10.7613 0.0292969 10.4457C0.0292969 10.13 0.154696 9.82725 0.377907 9.60404C0.601118 9.38083 0.903857 9.25543 1.21953 9.25543H8.3609V2.11406C8.3609 1.79839 8.4863 1.49565 8.70951 1.27244C8.93272 1.04923 9.23546 0.923828 9.55113 0.923828Z" fill="#8DD3BB"/>
</svg>
