<svg width="23" height="26" viewBox="0 0 23 26" fill="none" xmlns="http://www.w3.org/2000/svg">
<path d="M5.00001 7.01622V1.01622C5.00001 0.751008 5.10537 0.496654 5.2929 0.309118C5.48044 0.121582 5.73479 0.0162247 6.00001 0.0162247C6.26523 0.0162247 6.51958 0.121582 6.70712 0.309118C6.89465 0.496654 7.00001 0.751008 7.00001 1.01622V7.01622C7.00001 7.28144 6.89465 7.5358 6.70712 7.72333C6.51958 7.91087 6.26523 8.01622 6.00001 8.01622C5.73479 8.01622 5.48044 7.91087 5.2929 7.72333C5.10537 7.5358 5.00001 7.28144 5.00001 7.01622ZM23 1.01622V24.0162C23 24.2814 22.8947 24.5358 22.7071 24.7233C22.5196 24.9109 22.2652 25.0162 22 25.0162C21.7348 25.0162 21.4804 24.9109 21.2929 24.7233C21.1054 24.5358 21 24.2814 21 24.0162V18.0162H15C14.7348 18.0162 14.4804 17.9109 14.2929 17.7233C14.1054 17.5358 14 17.2814 14 17.0162C14.0464 14.6208 14.349 12.2373 14.9025 9.90623C16.125 4.84497 18.4425 1.45247 21.6063 0.0974749C21.7583 0.0323378 21.9242 0.00594239 22.0889 0.0206545C22.2537 0.0353666 22.4123 0.0907262 22.5504 0.181773C22.6885 0.27282 22.8019 0.396709 22.8803 0.542341C22.9588 0.687973 22.9999 0.850797 23 1.01622ZM21 2.75372C16.9788 5.82498 16.1913 13.3062 16.0375 16.0162H21V2.75372ZM10.9863 0.852475C10.9667 0.721168 10.9211 0.595075 10.8523 0.481551C10.7835 0.368028 10.6927 0.269345 10.5854 0.191261C10.478 0.113176 10.3562 0.0572519 10.227 0.0267504C10.0977 -0.00375115 9.96375 -0.0082194 9.8328 0.0136061C9.70185 0.0354316 9.57655 0.0831142 9.46422 0.153872C9.35189 0.22463 9.25477 0.317047 9.17853 0.425733C9.10229 0.534419 9.04846 0.657198 9.02017 0.786908C8.99188 0.916619 8.9897 1.05066 9.01376 1.18122L10 7.09497C10 8.15584 9.57858 9.17326 8.82844 9.9234C8.07829 10.6735 7.06088 11.095 6.00001 11.095C4.93914 11.095 3.92173 10.6735 3.17158 9.9234C2.42144 9.17326 2.00001 8.15584 2.00001 7.09497L2.98501 1.18122C3.00907 1.05066 3.00689 0.916619 2.9786 0.786908C2.95031 0.657198 2.89648 0.534419 2.82024 0.425733C2.744 0.317047 2.64688 0.22463 2.53455 0.153872C2.42222 0.0831142 2.29692 0.0354316 2.16597 0.0136061C2.03501 -0.0082194 1.90103 -0.00375115 1.77182 0.0267504C1.64261 0.0572519 1.52077 0.113176 1.4134 0.191261C1.30603 0.269345 1.21529 0.368028 1.14646 0.481551C1.07763 0.595075 1.03209 0.721168 1.01251 0.852475L0.0125093 6.85248C0.00395349 6.90663 -0.0002265 6.96139 9.45668e-06 7.01622C0.00200755 8.43349 0.504907 9.80443 1.41984 10.8868C2.33478 11.9692 3.60286 12.6933 5.00001 12.9312V24.0162C5.00001 24.2814 5.10537 24.5358 5.2929 24.7233C5.48044 24.9109 5.73479 25.0162 6.00001 25.0162C6.26523 25.0162 6.51958 24.9109 6.70712 24.7233C6.89465 24.5358 7.00001 24.2814 7.00001 24.0162V12.9312C8.39716 12.6933 9.66524 11.9692 10.5802 10.8868C11.4951 9.80443 11.998 8.43349 12 7.01622C11.9998 6.96136 11.9952 6.9066 11.9863 6.85248L10.9863 0.852475Z" fill="#112211"/>
</svg>
