<svg width="24" height="24" viewBox="0 0 24 24" fill="none" xmlns="http://www.w3.org/2000/svg">
<path d="M0.27022 22.425L6.04127 16.6551C4.36859 14.647 3.5345 12.0713 3.71252 9.46378C3.89055 6.85631 5.06697 4.41786 6.99707 2.65567C8.92717 0.893482 11.4623 -0.0567572 14.0752 0.00262448C16.6881 0.0620061 19.1775 1.12644 21.0255 2.97449C22.8736 4.82254 23.938 7.31193 23.9974 9.92479C24.0568 12.5377 23.1065 15.0728 21.3443 17.0029C19.5821 18.933 17.1437 20.1095 14.5362 20.2875C11.9287 20.4655 9.35302 19.6314 7.34486 17.9587L1.57496 23.7298C1.48929 23.8155 1.38758 23.8834 1.27565 23.9298C1.16372 23.9761 1.04375 24 0.92259 24C0.801434 24 0.681465 23.9761 0.56953 23.9298C0.457598 23.8834 0.35589 23.8155 0.27022 23.7298C0.184549 23.6441 0.116594 23.5424 0.0702286 23.4305C0.0238647 23.3185 0 23.1986 0 23.0774C0 22.9563 0.0238647 22.8363 0.0702286 22.7243C0.116594 22.6124 0.184549 22.5107 0.27022 22.425ZM22.1304 10.1683C22.1304 8.527 21.6437 6.92253 20.7318 5.55782C19.8199 4.1931 18.5238 3.12944 17.0074 2.50133C15.4911 1.87322 13.8225 1.70888 12.2127 2.02909C10.6029 2.34929 9.1242 3.13967 7.96361 4.30026C6.80302 5.46086 6.01264 6.93954 5.69243 8.54933C5.37223 10.1591 5.53657 11.8277 6.16468 13.3441C6.79279 14.8605 7.85645 16.1566 9.22116 17.0684C10.5859 17.9803 12.1903 18.467 13.8317 18.467C16.0319 18.4646 18.1413 17.5895 19.697 16.0337C21.2528 14.4779 22.1279 12.3685 22.1304 10.1683Z" fill="#112211"/>
</svg>
