<svg width="26" height="24" viewBox="0 0 26 24" fill="none" xmlns="http://www.w3.org/2000/svg">
<path d="M3.46586 15.6462C3.60699 15.4423 3.70108 15.2071 3.88925 15.0503C4.65763 14.4074 4.65763 14.4074 4.21856 13.4979C4.17151 13.4195 4.10879 13.3254 4.12447 13.2313C4.21856 12.6197 3.82653 12.6041 3.38746 12.5727C3.07383 12.557 2.77589 12.4472 2.47795 12.3532C2.36818 12.3218 2.24273 12.165 2.22705 12.0709C2.18001 11.6789 2.18001 11.2712 2.19569 10.8634C2.21137 10.5341 2.25841 10.2048 2.30546 9.89121C2.36818 9.42078 2.24273 9.04443 1.88206 8.73081C1.44299 8.35446 1.83502 7.93107 1.89775 7.55472C1.94479 7.35087 2.27409 7.17837 2.49363 7.02156C2.52499 6.9902 2.63476 7.05292 2.71317 7.06861C2.9327 7.13133 3.23064 7.30382 3.35609 7.20974C3.70108 6.9902 4.14015 6.75498 4.0147 6.19046C3.98334 6.04933 4.0147 5.9082 4.0147 5.70435C4.18719 5.68866 4.35969 5.68866 4.5165 5.68866C4.67331 5.68866 4.83012 5.68866 5.08102 5.68866C5.00261 5.4064 5.00261 5.13982 4.87716 4.99869C4.54786 4.65371 4.48514 4.29304 4.64195 3.85397C4.73603 3.57171 4.7674 3.27377 4.8458 2.86606C5.37896 3.10127 5.89644 3.27377 6.33551 3.55603C6.72754 3.80693 7.74681 3.91669 8.13884 3.65011C8.24861 3.57171 8.37406 3.4933 8.49951 3.44626C8.96994 3.28945 9.45606 3.17968 9.91081 3.00719C10.4126 2.81901 11.526 2.97583 11.871 3.39922C12.1689 3.77556 12.5452 3.82261 12.9686 3.91669C13.9095 4.08919 14.7563 3.75988 15.6344 3.52467C16.591 3.28945 17.4221 2.86606 18.2375 2.30154C18.8648 1.87814 19.6802 1.67429 20.5113 1.8311C20.8719 1.89383 21.2483 1.89383 21.609 1.84678C22.2989 1.76838 22.9732 1.68997 23.6475 1.51748C23.9925 1.43907 24.3061 1.18817 24.6354 1C25.1215 1.62725 25.1215 1.62725 24.6354 2.23881C24.1807 2.80333 23.7259 3.36785 23.2555 3.90101C23.13 4.04214 22.8948 4.12055 22.7066 4.19895C22.5498 4.26168 22.3616 4.26168 22.2048 4.30872C21.7814 4.41849 21.4521 4.60667 21.4208 5.10846C21.4051 5.28095 21.3581 5.45345 21.311 5.61026C21.1542 6.06501 21.2169 6.45704 21.4992 6.88043C21.8442 7.42927 21.8755 7.99379 21.5619 8.63672C21.2953 9.20124 21.2483 9.85985 21.1228 10.4871C21.0758 10.7066 21.0915 10.9262 21.1228 11.1457C21.2483 12.0709 20.7779 12.8079 20.3701 13.5606C20.3231 13.6547 20.1976 13.7488 20.0879 13.7958C17.8298 14.721 15.9324 16.2264 13.8938 17.5123C12.3884 18.4531 10.789 19.2685 9.25221 20.178C7.99771 20.9151 6.79027 21.7462 5.56714 22.5145C5.44169 22.5929 5.28487 22.6557 5.14374 22.64C4.48514 22.5773 3.85789 22.5459 3.34041 21.95C2.88566 21.4325 2.19569 21.1189 1.58412 20.7426C1.44299 20.6485 1.22346 20.6642 1.00392 20.6328C1.00392 19.9742 0.988239 19.3156 1.0196 18.657C1.0196 18.5158 1.17641 18.359 1.28618 18.2493C1.70957 17.8259 2.21137 17.4966 2.19569 16.7596C2.19569 16.5087 2.66612 16.2421 2.96406 16.0225C3.13656 15.8971 3.37177 15.8501 3.57563 15.7873C3.52859 15.7403 3.49722 15.6932 3.46586 15.6462ZM2.50931 7.60177C2.25841 8.05652 2.24273 8.37014 2.58772 8.69945C2.76021 8.87194 2.86998 9.18556 2.86998 9.43646C2.8543 10.0167 2.77589 10.5812 2.69748 11.1614C2.63476 11.5848 2.6818 11.9141 3.19928 11.9611C3.41882 11.9925 3.63835 11.9925 3.84221 12.0552C4.21856 12.1493 4.61058 12.2277 4.67331 12.7452C4.70467 13.0274 4.81444 13.3097 4.90853 13.5763C5.19079 14.4387 5.19079 14.8465 4.53218 15.2542C4.40673 15.3326 4.20288 15.4737 4.21856 15.5678C4.24992 16.2421 3.73244 16.3205 3.27769 16.493C2.91702 16.6341 2.71317 16.8536 2.66612 17.277C2.63476 17.5593 2.47795 17.9043 2.27409 18.0611C1.64685 18.5158 1.44299 19.0804 1.56844 19.8017C1.5998 19.9428 1.69389 20.0996 1.80366 20.178C2.54067 20.7269 3.29337 21.2444 4.0147 21.7932C4.34401 22.0441 5.0967 22.1225 5.426 21.9187C6.83731 21.0405 8.23293 20.1467 9.64423 19.2999C10.9144 18.5472 12.2316 17.8886 13.4704 17.1045C15.509 15.8344 17.3907 14.2976 19.6488 13.3724C19.8056 13.3097 19.9154 13.1372 20.0252 12.9804C20.4485 12.3532 20.527 11.6318 20.5583 10.8791C20.5897 10.0794 20.6681 9.2326 20.9817 8.49559C21.2326 7.86834 21.2483 7.39791 20.8876 6.89611C20.6054 6.51977 20.5897 6.12774 20.7151 5.70435C20.8092 5.43777 20.8876 5.15551 20.9033 4.88893C20.9503 4.16759 21.4521 3.83829 22.0323 3.77556C23.13 3.65011 23.428 2.72493 24.0082 2.06632C23.5064 2.11336 23.0359 2.20745 22.5498 2.27017C21.9226 2.34858 21.2483 2.52107 20.6524 2.4113C19.7272 2.23881 18.9275 2.42698 18.2375 2.96014C17.5632 3.47762 16.8262 3.72852 16.0421 3.96374C14.8974 4.29304 13.7841 4.68507 12.5609 4.40281C12.1846 4.3244 11.871 4.23032 11.6357 3.93238C11.3064 3.4933 10.7733 3.4149 10.3185 3.47762C9.70696 3.55603 9.06403 3.72852 8.56224 4.05782C7.90363 4.4969 7.22934 4.30872 6.57073 4.34009C6.4296 4.34009 6.27279 4.19895 6.13166 4.10487C5.86508 3.94806 5.58282 3.77556 5.31624 3.61875C5.08102 4.07351 5.12806 4.37145 5.37896 4.76348C5.56713 5.06142 5.56714 5.53185 5.50441 5.9082C5.44169 6.26887 5.03398 6.25319 4.72035 6.25319C4.67331 6.25319 4.64195 6.28455 4.56354 6.31591C4.68899 6.92747 4.21856 7.17837 3.87357 7.53904C3.41882 8.00948 2.99543 8.00948 2.50931 7.60177Z" fill="#112211" stroke="#112211" stroke-width="1.2"/>
</svg>
